<svg width="647" height="1240" viewBox="0 0 647 1240" fill="none" xmlns="http://www.w3.org/2000/svg">
<g clip-path="url(#clip0_363_80)">
<mask id="mask0_363_80" style="mask-type:luminance" maskUnits="userSpaceOnUse" x="-1" y="0" width="648" height="1240">
<path d="M646.083 75.9053L196.445 0L-7.46479e-05 1163.68L449.638 1239.58L646.083 75.9053Z" fill="white"/>
</mask>
<g mask="url(#mask0_363_80)">
<path d="M418.482 504.01L257.091 476.764L237.706 591.592L399.098 618.837L418.482 504.01Z" fill="#0033A1"/>
<path d="M456.926 458.21C454.522 454.034 450.382 451.147 445.632 450.335L267.031 419.826C262.28 419.014 257.418 420.364 253.762 423.506L117.343 540.519C110.865 546.078 106.535 553.723 105.098 562.133L5.14069 1147.29C3.6383 1156.09 9.55433 1164.44 18.3551 1165.94L432.522 1236.69C441.324 1238.2 449.678 1232.28 451.181 1223.48L551.139 638.325C552.575 629.92 551.027 621.267 546.762 613.873L456.926 458.21ZM336.01 569.03C316.849 567.291 303.867 548.963 308.586 530.317C312.298 515.65 326.406 505.661 341.476 507.031C360.637 508.77 373.619 527.099 368.901 545.744C365.188 560.411 351.08 570.398 336.01 569.03Z" fill="#001A66"/>
<path d="M385.448 447.239C382.789 447.754 380.081 446.272 379.127 443.649C379.065 443.475 371.998 424.823 356.166 422.12C340.347 419.419 328.601 434.655 328.483 434.809C326.615 437.273 323.1 437.759 320.636 435.892C318.171 434.025 317.685 430.511 319.552 428.047C320.198 427.196 335.601 407.25 358.05 411.081C380.358 414.892 389.284 438.815 389.656 439.83C390.713 442.737 389.211 445.949 386.304 447.005C386.02 447.107 385.734 447.185 385.447 447.243L385.448 447.239Z" fill="#001A66"/>
<path d="M454.921 456.024C452.518 451.849 448.377 448.961 443.627 448.149L265.026 417.64C260.276 416.828 255.412 418.179 251.757 421.321L115.338 538.339C108.86 543.893 104.53 551.538 103.093 559.948L3.13583 1145.1C1.63344 1153.9 7.54944 1162.25 16.3503 1163.76L430.518 1234.51C439.318 1236.01 447.674 1230.1 449.176 1221.3L549.134 636.14C550.571 627.73 549.022 619.081 544.758 611.688L454.921 456.024ZM334.004 566.85C314.844 565.111 301.861 546.781 306.58 528.135C310.293 513.468 324.401 503.479 339.471 504.848C358.632 506.588 371.614 524.916 366.895 543.562C363.183 558.228 349.075 568.218 334.004 566.85Z" fill="white"/>
<path d="M346.936 490.067C320.335 485.522 295.086 503.399 290.542 529.993C285.998 556.586 303.883 581.828 330.482 586.377C357.083 590.921 382.332 573.045 386.877 546.45C391.421 519.856 373.537 494.612 346.936 490.067ZM333.471 568.894C316.528 565.997 305.137 549.918 308.03 532.979C310.924 516.04 327.007 504.653 343.951 507.548C360.895 510.442 372.286 526.522 369.392 543.461C366.499 560.4 350.416 571.787 333.471 568.894Z" fill="#001A66"/>
<path d="M344.966 487.693C318.366 483.148 293.117 501.025 288.572 527.618C284.029 554.21 301.913 579.457 328.513 584.001C355.114 588.545 380.363 570.669 384.907 544.076C389.451 517.482 371.567 492.238 344.966 487.693ZM331.498 566.523C314.555 563.626 303.163 547.546 306.057 530.608C308.951 513.668 325.033 502.281 341.977 505.176C358.921 508.071 370.313 524.15 367.418 541.089C364.525 558.028 348.442 569.415 331.498 566.523Z" fill="#43B3DD"/>
<path d="M351.345 520.333C350.017 520.591 348.593 520.367 347.349 519.604C344.716 517.985 343.894 514.534 345.514 511.902C366.003 478.621 361.215 419.544 361.165 418.948C361.076 417.919 361.274 416.887 361.738 415.962C362.078 415.281 396.101 347.084 424.83 270.174C462.413 169.57 474.079 100.053 458.577 69.1398C453.647 59.3138 446.038 53.6007 435.32 51.6821C419.895 48.9177 406.889 52.6598 395.571 63.1165C325.808 127.568 352.997 411.799 353.278 414.663C353.366 415.559 353.237 416.463 352.901 417.3C352.671 417.873 330.028 474.962 338.473 510.536C339.188 513.545 337.326 516.563 334.316 517.278C331.315 517.997 328.287 516.13 327.572 513.121C318.94 476.767 338.465 423.564 341.998 414.412C341.042 404.072 335.116 336.216 336.896 262.141C339.505 153.519 356.686 83.793 387.962 54.8972C401.841 42.0764 418.436 37.2841 437.29 40.6614C451.529 43.212 462.058 51.1049 468.59 64.1242C508.009 142.716 384.13 396.052 372.451 419.587C373.153 429.795 375.766 484.137 355.056 517.771C354.2 519.163 352.835 520.049 351.349 520.334L351.345 520.333Z" fill="#001A66"/>
<path d="M203.236 787.528C179.207 783.471 160.383 772.024 146.771 753.197C133.153 734.363 128.289 713.469 132.165 690.506C136.042 667.543 147.483 649.475 166.503 636.311C185.515 623.151 207.041 618.59 231.07 622.646C255.099 626.703 273.776 638.046 287.108 656.671C300.437 675.296 305.168 696.094 301.291 719.057C297.415 742.02 285.968 760.56 267.105 773.75C248.245 786.941 226.95 791.531 203.232 787.527L203.236 787.528ZM147.195 894.271L398.531 700.514L427.777 724.348L176.059 917.562L147.198 894.271L147.195 894.271ZM212.621 729.121C219.704 730.317 225.878 728.927 231.151 724.926C236.411 720.94 239.619 715.574 240.756 708.837C241.894 702.095 240.611 696.057 236.927 690.709C233.232 685.365 227.845 682.093 220.762 680.897C213.679 679.702 207.968 681.1 202.733 684.937C197.488 688.777 194.299 694.071 193.162 700.803C192.026 707.535 193.223 714.038 196.917 719.387C200.602 724.734 205.84 727.976 212.621 729.121ZM353.382 987.648C329.043 983.54 310.13 972.162 296.646 953.506C283.161 934.86 278.357 914.05 282.234 891.082C286.111 868.119 297.556 849.584 316.416 836.393C335.275 823.207 356.874 818.658 381.216 822.767C405.557 826.876 423.912 838.245 437.219 857.02C450.521 875.8 455.24 896.67 451.363 919.633C447.486 942.601 436.117 960.681 417.258 973.867C398.397 987.063 377.102 991.653 353.382 987.648ZM347.062 919.507C350.75 924.855 355.985 928.097 362.77 929.242C369.554 930.387 375.566 928.965 380.837 924.975C386.098 920.983 389.28 915.767 390.366 909.336C391.554 902.299 390.298 896.1 386.614 890.753C382.92 885.403 377.682 882.161 370.911 881.018C364.14 879.875 358.116 881.221 352.878 885.057C347.636 888.898 344.422 894.342 343.234 901.379C342.045 908.421 343.372 914.159 347.062 919.507Z" fill="#43B3DD"/>
</g>
</g>
<defs>
<clipPath id="clip0_363_80">
<rect width="456" height="1180.14" fill="white" transform="translate(196.445) rotate(9.582)"/>
</clipPath>
</defs>
</svg>
