<svg width="834" height="1289" viewBox="0 0 834 1289" fill="none" xmlns="http://www.w3.org/2000/svg">
<g clip-path="url(#clip0_366_20)">
<mask id="mask0_366_20" style="mask-type:luminance" maskUnits="userSpaceOnUse" x="0" y="0" width="833" height="1288">
<path d="M439.69 0.133198L0.457031 151.939L392.956 1287.59L832.189 1135.78L439.69 0.133198Z" fill="white"/>
</mask>
<g mask="url(#mask0_366_20)">
<path d="M453.835 496.589L286.222 554.519L320.624 654.056L488.237 596.126L453.835 496.589Z" fill="#0032A0"/>
<path d="M457.175 434.1C452.987 431.544 447.874 430.985 443.228 432.58L268.585 492.559C263.94 494.154 260.25 497.736 258.514 502.328L193.634 673.51C190.553 681.638 190.412 690.584 193.233 698.798L389.552 1270.44C392.504 1279.03 401.874 1283.6 410.479 1280.65L815.47 1141.56C824.074 1138.6 828.66 1129.24 825.708 1120.64L629.391 549.012C626.569 540.792 620.961 533.823 613.536 529.297L457.175 434.1ZM403.136 592.172C385.149 599.979 364.588 589.944 359.703 570.979C355.863 556.064 363.604 540.247 377.752 534.11C395.739 526.305 416.301 536.34 421.185 555.304C425.025 570.219 417.285 586.039 403.136 592.172Z" fill="#001A66"/>
<path d="M387.886 459.211C385.759 460.969 382.614 460.968 380.48 459.091C380.339 458.966 364.911 445.753 349.43 451.071C333.963 456.384 330.896 475.735 330.866 475.93C330.399 479.044 327.492 481.194 324.376 480.73C321.259 480.266 319.109 477.364 319.577 474.25C319.739 473.175 323.776 447.831 345.726 440.288C367.539 432.796 387.205 449.81 388.033 450.536C390.397 452.617 390.623 456.22 388.538 458.584C388.334 458.814 388.116 459.023 387.887 459.214L387.886 459.211Z" fill="#0E68FF"/>
<path d="M454.315 433.127C450.126 430.57 445.013 430.012 440.368 431.606L265.724 491.585C261.079 493.18 257.389 496.761 255.654 501.355L190.773 672.536C187.692 680.665 187.552 689.611 190.374 697.829L386.691 1269.46C389.643 1278.06 399.013 1282.63 407.618 1279.67L812.609 1140.59C821.213 1137.63 825.8 1128.27 822.848 1119.67L626.531 548.038C623.709 539.819 618.1 532.85 610.676 528.324L454.315 433.127ZM400.277 591.204C382.29 599.009 361.729 588.976 356.844 570.011C353.004 555.093 360.745 539.278 374.893 533.14C392.88 525.334 413.441 535.368 418.326 554.335C422.166 569.25 414.425 585.066 400.277 591.204Z" fill="#001A66"/>
<path d="M374.352 516.287C348.341 525.22 334.486 553.524 343.407 579.503C352.328 605.484 380.65 619.305 406.662 610.37C432.673 601.438 446.529 573.133 437.607 547.152C428.687 521.175 400.364 507.355 374.352 516.287ZM400.798 593.288C384.231 598.982 366.191 590.18 360.507 573.631C354.825 557.082 363.649 539.053 380.217 533.363C396.786 527.673 414.826 536.476 420.509 553.023C426.192 569.572 417.367 587.6 400.798 593.288Z" fill="#001A66"/>
<path d="M371.431 515.128C345.42 524.06 331.565 552.366 340.486 578.346C349.407 604.326 377.729 618.142 403.741 609.211C429.753 600.28 443.608 571.974 434.686 545.994C425.766 520.015 397.443 506.196 371.431 515.128ZM397.876 592.137C381.308 597.825 363.267 589.023 357.583 572.474C351.902 555.928 360.726 537.899 377.294 532.208C393.863 526.518 411.903 535.321 417.586 551.866C423.269 568.415 414.443 586.443 397.876 592.137Z" fill="#0E68FF"/>
<path d="M393.075 541.176C392.013 542.053 390.63 542.549 389.145 542.475C385.999 542.315 383.579 539.633 383.742 536.49C385.817 496.747 352.688 446.303 352.353 445.795C351.77 444.919 351.444 443.901 351.406 442.847C351.379 442.074 348.511 364.523 336.653 281.774C321.144 173.532 297.636 105.724 268.675 85.6762C259.468 79.305 249.874 77.9169 239.349 81.438C224.203 86.5024 214.397 96.1987 209.379 111.07C178.453 202.73 341.556 443.397 343.206 445.82C343.722 446.577 344.048 447.446 344.157 448.36C344.231 448.983 351.854 511.05 376.778 538.708C378.886 541.048 378.695 544.654 376.351 546.762C374.019 548.871 370.398 548.683 368.289 546.343C342.818 518.079 334.303 461.006 332.995 451.104C327.091 442.332 288.657 384.6 254.08 317.549C203.376 219.226 184.696 148.537 198.561 107.443C204.715 89.2084 217.218 76.8207 235.73 70.6293C249.711 65.9533 262.983 67.8622 275.183 76.3037C348.816 127.267 361.714 414.122 362.759 440.853C368.372 449.632 397.243 496.907 395.143 537.073C395.056 538.735 394.268 540.193 393.078 541.173L393.075 541.176Z" fill="#0E68FF"/>
<path d="M391.067 852.242C367.593 860.355 345.17 859.327 323.801 849.151C302.424 838.978 287.871 822.684 280.126 800.275C272.379 777.861 273.794 756.136 284.378 735.084C294.956 714.04 311.981 699.447 335.455 691.334C358.929 683.222 381.172 684.236 402.192 694.365C423.208 704.495 437.592 720.762 445.338 743.175C453.084 765.584 451.897 787.739 441.466 808.738C431.039 829.736 414.234 844.241 391.065 852.248L391.067 852.242ZM393.064 974.986L523.258 679.111L561.054 686.117L430.253 981.699L393.067 974.984L393.064 974.986ZM370.943 795.476C377.862 793.084 382.705 788.826 385.47 782.682C388.227 776.545 388.477 770.189 386.204 763.613C383.93 757.032 379.834 752.263 373.929 749.289C368.013 746.317 361.597 746.021 354.677 748.413C347.758 750.804 343.334 754.847 340.525 760.833C337.708 766.823 337.44 773.11 339.712 779.681C341.981 786.248 346.227 791.473 352.143 794.449C358.051 797.429 364.319 797.765 370.943 795.476ZM623.079 957.707C599.304 965.925 576.83 964.995 555.661 954.912C534.495 944.844 520.037 928.594 512.289 906.18C504.545 883.771 505.732 861.621 516.16 840.623C526.59 819.629 543.688 805.018 567.466 796.8C591.245 788.581 613.211 789.768 634.282 800.047C655.349 810.327 669.76 826.67 677.506 849.078C685.252 871.492 683.913 893.203 673.481 914.191C663.055 935.193 646.25 949.699 623.079 957.707ZM584.154 899.909C590.064 902.888 596.33 903.23 602.958 900.939C609.585 898.649 614.268 894.441 617.032 888.297C619.789 882.161 620.09 875.949 617.92 869.672C615.547 862.806 611.398 857.884 605.49 854.904C599.574 851.927 593.307 851.591 586.692 853.877C580.077 856.163 575.346 860.306 572.536 866.294C569.721 872.282 569.504 878.714 571.878 885.585C574.255 892.461 578.242 896.936 584.154 899.909Z" fill="#0E68FF"/>
</g>
</g>
<defs>
<clipPath id="clip0_366_20">
<rect width="832.635" height="1288.19" fill="white" transform="translate(0.457031 0.133789)"/>
</clipPath>
</defs>
</svg>
